# xmcd
#
# Track frame offsets: 
#        150
#        14264
#        31945
#        54414
#        73449
#        88037
#        100662
#        120242
#        141626
#        155867
#        174508
#        188510
#        204532
#
# Disc length: 2976 seconds
#
# Revision: 0
# Processed by: cddbd v1.5.1PL0 Copyright (c) Steve Scherf et al.
# Submitted via: ExactAudioCopy v0.95b2
#
DISCID=b20b9e0d
DTITLE=Steve Earl - Sidetracks
DYEAR=2002
DGENRE=
TTITLE0=Some Dreams
TTITLE1=Open Your Window
TTITLE2=Me And The Eagle
TTITLE3=Johnny Too Bad
TTITLE4=Dominic Street
TTITLE5=Breed
TTITLE6=Time Has Come Today
TTITLE7=Ellis Unit One
TTITLE8=Creepy Jackalope Eye
TTITLE9=Willin'
TTITLE10=Sara's Angel
TTITLE11=My Uncle
TTITLE12=My Back Pages
EXTD=
EXTT0=
EXTT1=
EXTT2=
EXTT3=
EXTT4=
EXTT5=
EXTT6=
EXTT7=
EXTT8=
EXTT9=
EXTT10=
EXTT11=
EXTT12=
PLAYORDER=
